<svg width="17" height="17" viewBox="0 0 17 17" fill="none" xmlns="http://www.w3.org/2000/svg">
<path d="M11.9355 0C14.728 0 17 2.27194 17 5.06445V11.9355C17 14.7281 14.7281 17 11.9355 17H5.06445C2.27194 17 0 14.7281 0 11.9355V5.06445C0 2.27194 2.27194 0 5.06445 0H11.9355ZM5.06445 1.70996C3.212 1.70996 1.70996 3.21197 1.70996 5.06445V11.9355C1.70996 13.788 3.212 15.29 5.06445 15.29H11.9355C13.788 15.29 15.29 13.788 15.29 11.9355V5.06445C15.29 3.21197 13.788 1.70996 11.9355 1.70996H5.06445ZM8.5 4.10352C10.9244 4.10352 12.8965 6.0756 12.8965 8.5C12.8965 10.9244 10.9244 12.8965 8.5 12.8965C6.07564 12.8964 4.10353 10.9243 4.10352 8.5C4.10352 6.07566 6.07564 4.10356 8.5 4.10352ZM8.5 5.81348C7.01628 5.81351 5.81348 7.01624 5.81348 8.5C5.81348 9.98376 7.01624 11.1865 8.5 11.1865C9.98375 11.1865 11.1865 9.98375 11.1865 8.5C11.1865 7.01622 9.98378 5.81348 8.5 5.81348ZM12.9053 3.08301C13.487 3.08301 13.9587 3.55408 13.959 4.13574C13.959 4.71761 13.4871 5.18945 12.9053 5.18945C12.3235 5.18937 11.8516 4.71756 11.8516 4.13574C11.8518 3.55413 12.3236 3.08309 12.9053 3.08301Z" fill="white"/>
</svg>
