<svg width="52" height="52" viewBox="0 0 52 52" fill="none" xmlns="http://www.w3.org/2000/svg">
<path fill-rule="evenodd" clip-rule="evenodd" d="M26 51C39.8071 51 51 39.8071 51 26C51 12.1929 39.8071 1 26 1C12.1929 1 1 12.1929 1 26C1 39.8071 12.1929 51 26 51Z" stroke="white" stroke-opacity="0.6"/>
<path fill-rule="evenodd" clip-rule="evenodd" d="M20.3347 25.2197L26.4478 19.3231C26.8949 18.8923 27.618 18.8923 28.0651 19.3231C28.5115 19.7539 28.5115 20.4521 28.0651 20.8829L22.7599 25.9996L28.0651 31.1171C28.5115 31.5479 28.5115 32.2461 28.0651 32.6769C27.618 33.1077 26.8949 33.1077 26.4478 32.6769L20.3347 26.7795C19.8883 26.3487 19.8883 25.6506 20.3347 25.2197Z" fill="white" fill-opacity="0.6"/>
</svg>
