<svg width="52" height="52" viewBox="0 0 52 52" fill="none" xmlns="http://www.w3.org/2000/svg">
<path fill-rule="evenodd" clip-rule="evenodd" d="M26 51C39.8071 51 51 39.8071 51 26C51 12.1929 39.8071 1 26 1C12.1929 1 1 12.1929 1 26C1 39.8071 12.1929 51 26 51Z" stroke="#28B0A9"/>
<path fill-rule="evenodd" clip-rule="evenodd" d="M31.0652 26.7803L24.9521 32.6769C24.505 33.1077 23.7819 33.1077 23.3348 32.6769C22.8884 32.2461 22.8884 31.5479 23.3348 31.1171L28.64 26.0004L23.3348 20.8829C22.8884 20.4521 22.8884 19.7539 23.3348 19.3231C23.7819 18.8923 24.505 18.8923 24.9521 19.3231L31.0652 25.2205C31.5116 25.6513 31.5116 26.3494 31.0652 26.7803Z" fill="#28B0A9"/>
</svg>
