<svg width="17" height="17" viewBox="0 0 17 17" fill="none" xmlns="http://www.w3.org/2000/svg">
<path d="M16.372 0.0363084C16.7125 -0.11464 17.064 0.228125 16.9901 0.638847L14.1054 16.5783C14.0372 16.9544 13.6528 17.1248 13.3817 16.8986L9.44326 13.6144C9.20411 13.4152 8.87813 13.4257 8.64932 13.6398L6.46572 15.6847C6.21225 15.9225 5.83029 15.7894 5.7333 15.4308L4.21768 9.83123L0.299709 8.15154C-0.0977175 7.98 -0.100771 7.33502 0.295803 7.15936L16.372 0.0363084ZM13.1444 3.52166L5.48916 8.9367C5.1958 9.14469 5.05755 9.5518 5.15225 9.93279L5.98037 13.2736C6.03926 13.5101 6.33756 13.4858 6.36612 13.2414L6.58194 11.4094C6.62253 11.0645 6.76517 10.7464 6.98721 10.509L13.3056 3.76385C13.4237 3.63796 13.282 3.4246 13.1444 3.52166Z" fill="white"/>
<path d="M5.4892 8.93685L13.1448 3.52137C13.2824 3.42431 13.4239 3.63799 13.3058 3.76387L6.9877 10.5093C6.76564 10.7467 6.62237 11.0644 6.58179 11.4093L6.36657 13.2412C6.33808 13.4858 6.03892 13.5101 5.98015 13.2734L5.15242 9.93288C5.05763 9.55183 5.19579 9.14488 5.4892 8.93685Z" fill="#E6E6E6"/>
</svg>
