<svg width="17" height="10" viewBox="0 0 17 10" fill="none" xmlns="http://www.w3.org/2000/svg">
<path d="M14.6309 6.35846C15.1948 6.93074 15.79 7.46917 16.2958 8.09917C16.5192 8.37913 16.7307 8.66802 16.8925 8.99292C17.1218 9.45478 16.9142 9.96302 16.5157 9.9906L14.0391 9.98944C13.4004 10.0445 12.8908 9.77723 12.4624 9.32327C12.1195 8.96023 11.8019 8.57385 11.4722 8.19856C11.337 8.04517 11.1956 7.90084 11.0265 7.78675C10.6885 7.55864 10.395 7.62849 10.2018 7.99501C10.005 8.3678 9.96039 8.7806 9.94106 9.19607C9.91453 9.80226 9.73826 9.96163 9.15245 9.98938C7.90052 10.0507 6.71237 9.85387 5.60862 9.1974C4.63552 8.61867 3.88092 7.80168 3.22412 6.87674C1.94532 5.07571 0.966017 3.09667 0.0858558 1.06218C-0.112262 0.603809 0.032626 0.357757 0.519178 0.349048C1.32712 0.332734 2.13495 0.333895 2.94384 0.347887C3.27221 0.35288 3.4896 0.548653 3.61639 0.87111C4.05351 1.98833 4.58838 3.05127 5.25975 4.03652C5.43854 4.29883 5.62085 4.56114 5.88047 4.74576C6.16767 4.95019 6.38635 4.88243 6.52146 4.54987C6.6072 4.33901 6.64473 4.11188 6.66406 3.88603C6.72807 3.10904 6.7365 2.33337 6.62423 1.5591C6.55531 1.07588 6.29346 0.763063 5.82958 0.671621C5.59287 0.625 5.62812 0.533442 5.74273 0.392998C5.9418 0.150778 6.12902 0 6.50224 0H9.30119C9.74183 0.0903971 9.83969 0.296157 9.90001 0.757025L9.90241 3.98874C9.89761 4.16715 9.98815 4.69659 10.2973 4.81468C10.5447 4.89875 10.7078 4.69299 10.8563 4.5299C11.5265 3.79058 12.0047 2.91686 12.432 2.01214C12.6217 1.61432 12.7847 1.20117 12.9427 0.788377C13.0598 0.48206 13.2435 0.33134 13.5754 0.338017L16.2693 0.340513C16.3491 0.340513 16.43 0.341733 16.5073 0.355492C16.9612 0.435904 17.0856 0.638876 16.9454 1.09963C16.7245 1.82252 16.2947 2.42493 15.8745 3.03013C15.4252 3.67627 14.9448 4.30028 14.4993 4.95025C14.09 5.54378 14.1225 5.84295 14.6309 6.35846Z" fill="white"/>
</svg>
